<svg xmlns="http://www.w3.org/2000/svg" width="13.795" height="15.144" viewBox="0 0 13.795 15.144">
  <path id="Bulb-Icon-9jncxs" d="M5.73,14.112a.578.578,0,1,1,0-1.156H7.045a.578.578,0,1,1,0,1.156ZM1.817,11.758l.514-.512c.365-.361.922.182.559.54l-.514.513a.392.392,0,0,1-.279.114A.385.385,0,0,1,1.817,11.758Zm3.758.4a1.378,1.378,0,0,1-1.43-1.21,3.653,3.653,0,0,0-.89-1.676A4.488,4.488,0,0,1,2.047,6.377,4.306,4.306,0,0,1,6.389,2.117a4.306,4.306,0,0,1,4.34,4.259A4.472,4.472,0,0,1,9.521,9.27a3.663,3.663,0,0,0-.89,1.676,1.377,1.377,0,0,1-1.43,1.21ZM6.781,8.989v2.09H7.2c.216,0,.314-.081.343-.289a4.579,4.579,0,0,1,1.1-2.17,3.468,3.468,0,0,0,.985-2.244,3.244,3.244,0,0,0-6.486,0,3.468,3.468,0,0,0,.985,2.243,4.583,4.583,0,0,1,1.1,2.171.293.293,0,0,0,.343.289H6V8.989a.392.392,0,0,1,.784,0Zm5.453.071-.731-.3a.386.386,0,1,1,.3-.71l.731.3a.388.388,0,0,1-.141.745A.418.418,0,0,1,12.233,9.06ZM.243,8.346l.73-.3a.386.386,0,1,1,.3.711l-.73.3a.424.424,0,0,1-.159.033A.387.387,0,0,1,.243,8.346Zm7.134-.219c-.656-.987-1.323-.985-1.979,0a.4.4,0,0,1-.542.111.377.377,0,0,1-.114-.531c.969-1.459,2.323-1.459,3.291,0a.38.38,0,0,1-.113.531.4.4,0,0,1-.216.063A.392.392,0,0,1,7.378,8.127Zm4.077-4.336.777-.316a.386.386,0,0,1,.3.711l-.779.315a.419.419,0,0,1-.159.033A.387.387,0,0,1,11.455,3.791ZM1.021,4.5.243,4.186a.382.382,0,0,1-.212-.5.393.393,0,0,1,.512-.207l.779.316a.381.381,0,0,1,.211.5.392.392,0,0,1-.362.238A.387.387,0,0,1,1.021,4.5ZM8.376,1.56a.384.384,0,0,1-.214-.5L8.508.239A.4.4,0,0,1,9.021.03a.383.383,0,0,1,.212.5l-.343.816a.392.392,0,0,1-.363.238A.426.426,0,0,1,8.376,1.56ZM3.887,1.35,3.542.532a.381.381,0,0,1,.214-.5.394.394,0,0,1,.512.209l.343.816a.383.383,0,0,1-.212.5.426.426,0,0,1-.15.027A.391.391,0,0,1,3.887,1.35Z" transform="translate(0.51 0.532)" stroke="rgba(0,0,0,0)" stroke-miterlimit="10" stroke-width="1"/>
</svg>
